<svg xmlns="http://www.w3.org/2000/svg" id="Group_10173" data-name="Group 10173" width="80.894" height="80.895" viewBox="0 0 80.894 80.895"><rect id="Rectangle_112" data-name="Rectangle 112" width="80.894" height="80.894" rx="2" transform="translate(0)" fill="#f96e2b"/><g id="Group_10172" data-name="Group 10172" transform="translate(6.069 6.829)"><g id="Group_10171" data-name="Group 10171" transform="translate(0 0)"><path id="Path_1208" data-name="Path 1208" d="M38.5,287.217,35.5,281H31v9h2.787v-6.86L37.431,290h2.358l3.644-6.86V290h2.572v-9H41.933Zm45.66-1.286a3.321,3.321,0,0,1-.429,1.715,3.1,3.1,0,0,1-2.358.643H77.732v-5.359H81.59a3.086,3.086,0,0,1,1.929.429,1.179,1.179,0,0,1,.643,1.072Zm1.715-4.073A7.2,7.2,0,0,0,81.8,281h-6.86v9h7.288c1.929,0,3.215-.214,3.859-1.072a4.241,4.241,0,0,0,1.072-3l-.214-1.5A2.923,2.923,0,0,0,85.878,281.857Zm-15.863,6.217L65.513,281h-4.5v9h2.572v-7.074L68.3,290h4.716v-9h-3ZM97.025,281l-3.215,3.644-3-3.644H87.593l4.93,5.574V290H95.31v-3.43L100.24,281Zm-45.66,5.359,2.144-3.644,1.929,3.644Zm0-5.359-4.5,9H49.65l.857-1.715H56.3L57.153,290h2.787l-4.5-9Z" transform="translate(-31 -222.658)" fill="#fefefe"/><g id="Group_3099" data-name="Group 3099" transform="translate(6.716)"><path id="Path_1209" data-name="Path 1209" d="M153.875,80.595l-18.11,6.446V72H124.1V87.041l-17.8-6.446L102,91.952,120.11,98.4l10.129-3.377,9.516,3.377,18.11-5.832Z" transform="translate(-102 -72)" fill="#818286"/><path id="Path_1210" data-name="Path 1210" d="M105.683,168.487l18.417-6.753v15.041h11.664V161.734l17.8,6.753,4.3-11.357L130.24,147,102,156.209Z" transform="translate(-102 -124.878)" fill="#fefefe"/></g></g></g></svg>